<svg xmlns="http://www.w3.org/2000/svg" width="25" height="25" viewBox="0 0 64 64">
<path d="M37.514 0c-14.375 0-26.092 11.717-26.092 26.092 0 5.809 1.871 11.028 5.12 15.36l-15.163 14.769c-1.772 1.772-1.871 4.628-0.098 6.4 0.886 0.886 2.068 1.378 3.249 1.378s2.265-0.394 3.151-1.28l15.36-14.868c4.135 2.757 9.157 4.431 14.474 4.431 14.375 0 26.092-11.717 26.092-26.092s-11.618-26.191-26.092-26.191zM37.514 43.126c-9.354 0-17.034-7.582-17.034-17.034s7.68-17.034 17.034-17.034 17.034 7.68 17.034 17.034-7.582 17.034-17.034 17.034z"></path>
</svg>
